HIERARCHY
ROOT Hips
{
	OFFSET 0.000000 0.000000 0.000000
	CHANNELS 6 Xposition Yposition Zposition Xrotation Yrotation Zrotation
	JOINT LeftUpLeg_virtual
	{
		OFFSET 0.000000 0.000000 0.000000
		CHANNELS 3 Xrotation Yrotation Zrotation
		JOINT LeftUpLeg
		{
			OFFSET 13.026900 -6.336304 -1.092800
			CHANNELS 3 Xrotation Yrotation Zrotation
			JOINT LeftLeg
			{
				OFFSET 0.524474 -46.096886 9.782700
				CHANNELS 3 Xrotation Yrotation Zrotation
				JOINT LeftFoot
				{
					OFFSET -0.524474 -53.427422 -12.948200
					CHANNELS 3 Xrotation Yrotation Zrotation
					JOINT LeftToeBase
					{
						OFFSET 0.192200 -14.009700 16.364100
						CHANNELS 3 Xrotation Yrotation Zrotation
						JOINT LeftToe_End
						{
							OFFSET -1.784700 -0.561700 9.474800
							CHANNELS 3 Xrotation Yrotation Zrotation
							End Site
							{
								OFFSET 0 0 0
							}
						}
					}
				}
			}
		}
	}
	JOINT RightUpLeg_virtual
	{
		OFFSET 0.000000 0.000000 0.000000
		CHANNELS 3 Xrotation Yrotation Zrotation
		JOINT RightUpLeg
		{
			OFFSET -12.883000 -6.336304 -1.092800
			CHANNELS 3 Xrotation Yrotation Zrotation
			JOINT RightLeg
			{
				OFFSET -0.524587 -46.096825 9.782800
				CHANNELS 3 Xrotation Yrotation Zrotation
				JOINT RightFoot
				{
					OFFSET 0.524587 -53.427383 -12.948300
					CHANNELS 3 Xrotation Yrotation Zrotation
					JOINT RightToeBase
					{
						OFFSET -0.192200 -14.009700 16.364100
						CHANNELS 3 Xrotation Yrotation Zrotation
						JOINT RightToe_End
						{
							OFFSET 1.784700 -0.561700 9.474800
							CHANNELS 3 Xrotation Yrotation Zrotation
							End Site
							{
								OFFSET 0 0 0
							}
						}
					}
				}
			}
		}
	}
	JOINT Spine_virtual
	{
		OFFSET 0.000000 0.000000 0.000000
		CHANNELS 3 Xrotation Yrotation Zrotation
		JOINT Spine
		{
			OFFSET 0.072000 7.257294 -0.789700
			CHANNELS 3 Xrotation Yrotation Zrotation
			JOINT Spine1
			{
				OFFSET 0.000000 12.508769 -0.658067
				CHANNELS 3 Xrotation Yrotation Zrotation
				JOINT Spine1_split
				{
					OFFSET 0.000000 12.508769 -0.658067
					CHANNELS 3 Xrotation Yrotation Zrotation
					JOINT Spine2
					{
						OFFSET 0.000000 12.508769 -0.658067
						CHANNELS 3 Xrotation Yrotation Zrotation
						JOINT Neck_virtual
						{
							OFFSET 0.000000 0.000000 0.000000
							CHANNELS 3 Xrotation Yrotation Zrotation
							JOINT Neck
							{
								OFFSET 0.000000 14.033295 7.520400
								CHANNELS 3 Xrotation Yrotation Zrotation
								JOINT Head
								{
									OFFSET 0.000000 8.198502 5.703100
									CHANNELS 3 Xrotation Yrotation Zrotation
									JOINT HeadTop_End
									{
										OFFSET 0.000000 17.760803 13.332701
										CHANNELS 3 Xrotation Yrotation Zrotation
										End Site
										{
											OFFSET 0 0 0
										}
									}
								}
							}
						}
						JOINT LeftShoulder_virtual
						{
							OFFSET 0.000000 0.000000 0.000000
							CHANNELS 3 Xrotation Yrotation Zrotation
							JOINT LeftShoulder
							{
								OFFSET 6.292450 5.785301 -0.669000
								CHANNELS 3 Xrotation Yrotation Zrotation
								JOINT LeftShoulder_split
								{
									OFFSET 6.292450 5.785301 -0.669000
									CHANNELS 3 Xrotation Yrotation Zrotation
									JOINT LeftArm
									{
										OFFSET 13.907140 -6.093903 1.965100
										CHANNELS 3 Xrotation Yrotation Zrotation
										JOINT LeftForeArm
										{
											OFFSET 34.140198 0.000000 0.000000
											CHANNELS 3 Xrotation Yrotation Zrotation
											JOINT LeftHand
											{
												OFFSET 40.960209 0.000000 0.000000
												CHANNELS 3 Xrotation Yrotation Zrotation
												End Site
												{
													OFFSET 0 0 0
												}
											}
										}
									}
								}
							}
						}
						JOINT RightShoulder_virtual
						{
							OFFSET 0.000000 0.000000 0.000000
							CHANNELS 3 Xrotation Yrotation Zrotation
							JOINT RightShoulder
							{
								OFFSET -6.292450 5.785301 -0.669000
								CHANNELS 3 Xrotation Yrotation Zrotation
								JOINT RightShoulder_split
								{
									OFFSET -6.292450 5.785301 -0.669000
									CHANNELS 3 Xrotation Yrotation Zrotation
									JOINT RightArm
									{
										OFFSET -13.907140 -6.093903 1.965100
										CHANNELS 3 Xrotation Yrotation Zrotation
										JOINT RightForeArm
										{
											OFFSET -34.140198 0.000000 0.000000
											CHANNELS 3 Xrotation Yrotation Zrotation
											JOINT RightHand
											{
												OFFSET -40.960209 0.000000 0.000000
												CHANNELS 3 Xrotation Yrotation Zrotation
												End Site
												{
													OFFSET 0 0 0
												}
											}
										}
									}
								}
							}
						}
					}
				}
			}
		}
	}
}
MOTION
Frames: 4
Frame Time: 0.03333333
3.609589 121.426407 -15.688824 0.000000 0.000000 0.000000 -7.175052 3.208176 9.901925 9.346782 26.267425 -8.680435 -3.143096 4.199137 2.039529 -2.802488 1.447241 -0.193876 3.795668 -1.624402 -2.379629 0.000000 0.000000 0.000000 -6.853183 2.956095 9.553059 -5.836654 -6.244086 -13.618290 14.589817 8.875435 -1.583283 -3.468340 -16.403644 27.784675 0.726970 4.802871 -16.238531 0.000000 0.000000 0.000000 -10.603751 5.000641 9.488201 1.036606 -2.696532 -0.695999 7.192055 5.007131 -0.754922 0.088981 0.001729 0.055954 0.000000 0.000000 0.000000 8.502902 6.618791 -0.429103 -1.835169 -10.085528 0.309733 -68.135686 -64.404367 -59.108075 0.000000 0.000000 0.000000 5.001515 5.139282 -1.583371 0.556807 -33.251526 -3.905769 7.016027 4.112665 -6.353370 13.074876 15.456619 -54.816742 -2.895987 -41.256750 -10.873262 0.000000 0.000000 0.000000 5.042981 5.658940 1.431414 -3.279028 1.973202 10.239832 -2.749526 1.548290 0.570388 16.804094 11.221363 46.288127 -1.940125 20.082657 20.843103 0.000000 0.000000 0.000000 
3.153553 121.971512 -14.568897 0.000000 0.000000 0.000000 -7.189479 4.130883 9.856500 8.343506 25.458311 -8.045142 -3.256342 4.534706 1.969913 -0.879322 1.689486 0.113120 3.394389 -1.533823 -2.594255 0.000000 0.000000 0.000000 -7.051179 3.704756 9.570534 -4.744488 -7.095289 -13.831076 12.589534 8.733194 -1.465105 -2.272688 -15.233883 29.692683 -2.910171 5.118765 -16.117711 0.000000 0.000000 0.000000 -10.723035 5.255029 9.174246 1.511953 -2.708530 -0.576828 7.803314 4.792254 -0.831580 0.212129 -0.091698 0.152132 0.000000 0.000000 0.000000 8.940327 6.533699 -0.433440 -2.929815 -9.930568 -0.033650 -66.445904 -64.082406 -56.580242 0.000000 0.000000 0.000000 5.573397 4.932851 -1.671560 0.722461 -34.071873 -3.642009 8.498093 -0.039649 -5.881812 17.934340 13.948173 -56.970686 -0.834481 -40.717343 -9.317978 0.000000 0.000000 0.000000 5.441575 5.560194 1.329149 -3.389367 2.885526 9.451582 -1.217315 1.899268 1.353426 16.842210 13.196052 46.054289 -2.684884 23.614606 20.982377 0.000000 0.000000 0.000000 
2.677498 123.001137 -13.691441 0.000000 0.000000 0.000000 -7.159146 4.869505 9.518404 7.218564 24.587552 -7.144997 -3.466927 5.210112 2.224941 1.773971 2.179571 0.509355 1.553084 -1.399480 -2.936193 0.000000 0.000000 0.000000 -6.996213 4.634962 9.289434 -2.704200 -7.774291 -13.255989 9.051981 7.686732 -1.413436 -2.073508 -14.830750 28.778169 -3.066735 4.870985 -14.945198 0.000000 0.000000 0.000000 -10.471148 5.858314 8.599051 1.941928 -2.748036 -0.140302 8.822309 4.083578 -1.126866 0.276789 -0.206348 0.145584 0.000000 0.000000 0.000000 9.871578 6.031000 -0.752464 -3.966637 -8.845194 -0.522717 -61.704270 -63.884863 -50.738347 0.000000 0.000000 0.000000 6.956782 4.388817 -1.970956 1.165646 -33.715364 -2.780886 8.844557 -2.524123 -4.394244 24.307904 11.061610 -57.838978 0.468385 -44.697321 -6.176285 0.000000 0.000000 0.000000 6.760358 5.021107 0.786965 -3.127716 4.811499 8.062255 0.398539 1.076702 1.685768 19.695655 16.257332 45.624021 -2.532950 27.974730 18.847458 0.000000 0.000000 0.000000 
2.278198 124.028397 -13.027798 0.000000 0.000000 0.000000 -7.143084 5.130918 8.917667 5.912271 24.086194 -6.098288 -3.333509 5.880565 2.737381 4.747313 2.747602 0.500992 -1.086188 -1.204209 -3.324092 0.000000 0.000000 0.000000 -6.786351 5.066380 8.735795 -1.299572 -8.047916 -12.264908 6.249002 6.118449 -1.460949 -1.258226 -14.767668 26.306504 -1.700275 4.359419 -13.018237 0.000000 0.000000 0.000000 -10.280334 6.791573 7.969156 2.301845 -2.871515 0.453281 10.083540 2.939503 -1.465444 0.223102 -0.285504 0.167645 0.000000 0.000000 0.000000 11.041847 5.082882 -1.229823 -4.540679 -6.878448 -1.279449 -53.650945 -63.351869 -41.710183 0.000000 0.000000 0.000000 8.761385 3.466109 -2.316486 1.896331 -32.171127 -1.266593 8.292841 -3.371160 -3.796503 30.706915 8.180587 -57.145502 1.996617 -52.779430 -0.684027 0.000000 0.000000 0.000000 8.662790 4.015675 0.035630 -2.565976 7.618660 6.456047 1.808967 -0.009225 1.415574 23.546934 19.120536 45.536499 -1.105845 32.991272 14.284754 0.000000 0.000000 0.000000 
